<svg xmlns="http://www.w3.org/2000/svg" xml:space="preserve" width="1000px" height="1234.826px" x="0px" y="0px" viewBox="0 0 1000 1234.826"><g fill="#FFB819"><path d="M742.949.631 499.318 122.623 256.214.631l243.104 462.905z"/><path d="m828.192 358.781-3.685-3.426 173.666-73.298V37.814L696.016 166.389S532.887 476.631 529.027 483.401c128.316 15.124 224.119 122.602 224.119 251.98 0 140.448-113.556 254.966-253.828 254.966-140.449 0-253.816-114.518-253.816-254.966 0-129.378 95.967-236.856 223.931-251.98-3.684-6.77-166.801-317.012-166.801-317.012L1.342 37.814v244.242l172.786 73.298-3.333 3.426C61.979 453.704-.418 590.89-.418 735.381c0 275.875 223.943 500.076 499.736 500.076 275.617 0 500.264-224.201 500.264-500.076 0-144.139-62.574-281.677-171.39-376.6z"/></g></svg>